# AST/ASF file generated using VICON BodyLanguage
# -----------------------------------------------
:version 1.10
:name VICON
:units
  mass 1.0
  length 0.45
  angle deg
:documentation
   .ast/.asf automatically generated from VICON data using
   VICON BodyBuilder and BodyLanguage model FoxedUp or BRILLIANT.MOD
:root
   order TX TY TZ RX RY RZ
   axis XYZ
   position 0 0 0  
   orientation 0 0 0 
:bonedata
  begin
     id 1 
     name lhipjoint
     direction 0.575328 -0.747301 0.332475 
     length 2.40933 
     axis 0 0 0  XYZ
  end
  begin
     id 2 
     name lfemur
     direction 0.34202 -0.939693 0  
     length 7.31453  
     axis 0 0 20  XYZ
    dof rx ry rz
    limits (-160.0 20.0)
           (-70.0 70.0)
           (-60.0 70.0)
  end
  begin
     id 3 
     name ltibia
     direction 0.34202 -0.939693 0   
     length 7.82185   
     axis 0 0 20   XYZ
    dof rx
    limits (-10.0 170.0)
  end
  begin
     id 4 
     name lfoot
     direction 0.0795993 -0.218697 0.972541   
     length 2.19173   
     axis -90 7.62852e-016 20   XYZ
    dof rx rz
    limits (-45.0 90.0)
           (-70.0 20.0)
  end
  begin
     id 5 
     name ltoes
     direction 1.53537e-011 -4.21894e-011 1   
     length 1.10023   
     axis -90 7.62852e-016 20   XYZ
    dof rx
    limits (-90.0 20.0)
  end
  begin
     id 6 
     name rhipjoint
     direction -0.513884 -0.783789 0.348708   
     length 2.29716  
     axis 0 0 0  XYZ 
  end
  begin
     id 7 
     name rfemur
     direction -0.34202 -0.939693 0   
     length 7.59573   
     axis 0 0 -20   XYZ
    dof rx ry rz
    limits (-160.0 20.0)
           (-70.0 70.0)
           (-70.0 60.0)
  end
  begin
     id 8 
     name rtibia
     direction -0.34202 -0.939693 0   
     length 7.66402   
     axis 0 0 -20   XYZ
    dof rx
    limits (-10.0 170.0)
 end
 begin
     id 9 
     name rfoot
     direction -0.137793 -0.378584 0.915253   
     length 2.27056  
     axis -90 -7.62852e-016 -20   XYZ
    dof rx rz
    limits (-45.0 90.0)
           (-20.0 70.0)
  end
  begin
     id 10 
     name rtoes
     direction -1.53493e-011 -4.22159e-011 1   
     length 1.11766   
     axis -90 -7.62852e-016 -20   XYZ
    dof rx
    limits (-90.0 20.0)
  end
  begin
     id 11 
     name lowerback
     direction -0.00732775 0.998356 -0.05685   
     length 2.16513   
     axis 0 0 0   XYZ
    dof rx ry rz
    limits (-20.0 45.0)
           (-30.0 30.0)
           (-30.0 30.0)
  end
  begin
     id 12 
     name upperback
     direction 0.0218081 0.999627 -0.0164647   
     length 2.16755   
     axis 0 0 0   XYZ
    dof rx ry rz
    limits (-20.0 45.0)
           (-30.0 30.0)
           (-30.0 30.0)
  end
  begin
     id 13 
     name thorax
     direction 0.02365 0.999661 0.0108914   
     length 2.16932   
     axis 0 0 0   XYZ
    dof rx ry rz
    limits (-20.0 45.0)
           (-30.0 30.0)
           (-30.0 30.0)
  end
  begin
     id 14 
     name lowerneck
     direction -0.0523929 0.978385 0.200044   
     length 1.63877   
     axis 0 0 0   XYZ
    dof rx ry rz
    limits (-20.0 45.0)
           (-30.0 30.0)
           (-30.0 30.0)
  end
  begin
     id 15 
     name upperneck
     direction 0.0448674 0.981321 -0.187074   
     length 1.69014   
     axis 0 0 0   XYZ
    dof rx ry rz
    limits (-20.0 45.0)
           (-30.0 30.0)
           (-30.0 30.0)
  end
  begin
     id 16
     name head
     direction 0.0199089 0.996118 -0.0857429  
     length 1.70094  
     axis 0 0 0   XYZ
    dof rx ry rz
    limits (-20.0 45.0)
           (-30.0 30.0)
           (-30.0 30.0)
  end
  begin
     id 17 
     name lclavicle
     direction 0.940366 0.30191 -0.156722  
     length 3.37521  
     axis 0 0 0   XYZ
    dof ry rz
    limits (-20.0 10.0)
           (0.0 20.0)
  end
  begin
     id 18 
     name lhumerus
     direction 1 -4.4897e-011 -1.7911e-027   
     length 5.25287   
     axis 180 -30 -90   XYZ
    dof rx ry rz
    limits (-60.0 90.0)
           (-90.0 90.0)
           (-90.0 90.0)
  end
  begin
     id 19
     name lradius
     direction 1 -4.48951e-011 1.04424e-027   
     length 3.51014   
     axis 180 -30 -90   XYZ
    dof rx
    limits (-10.0 170.0)
  end
  begin
     id 20
     name lwrist
     direction 1 -4.48997e-011 -9.5942e-028   
     length 1.75507   
     axis 8.48502e-016 90 90   XYZ
    dof ry
    limits (-180.0 0.0)
 end
  begin
     id 21 
     name lhand
     direction 1 -4.48831e-011 -1.90777e-027   
     length 0.706179   
     axis 1.22306e-015 90 90   XYZ
    dof rx rz
    limits (-90.0 90.0)
           (-45.0 45.0)
  end
  begin
     id 22 
     name lfingers
     direction 1 -4.49108e-011 -3.85244e-027   
     length 0.569339   
     axis 2.44611e-015 90 90   XYZ
    dof rx
    limits (0.0 90.0)
  end
  begin
     id 23
     name lthumb
     direction 0.707107 -6.34953e-011 0.707107   
     length 0.817461   
     axis -90 45 -1.62303e-014   XYZ
    dof rx rz
    limits (-45.0 45.0)
           (-45.0 45.0)
  end
  begin
     id 24 
     name rclavicle
     direction -0.905329 0.382405 -0.184787   
     length 3.30787  
     axis 0 0 0   XYZ 
    dof ry rz
    limits (-10.0 20.0)
           (-20.0 0.0)
  end
  begin
     id 25 
     name rhumerus
     direction -1 -4.48953e-011 -9.15316e-029  
     length 5.28721   
     axis 180 30 90   XYZ
    dof rx ry rz
    limits (-90.0 60.0)
           (-90.0 90.0)
           (-90.0 90.0)
  end
  begin
     id 26 
     name rradius
     direction -1 -4.48987e-011 9.37824e-028   
     length 3.50544   
     axis 180 30 90   XYZ
    dof rx
    limits (-10.0 170.0)
  end
  begin
     id 27 
     name rwrist
     direction -1 -4.48967e-011 -9.58414e-028   
     length 1.75272   
     axis 8.48502e-016 -90 -90   XYZ
    dof ry
    limits (-180.0 0.0)
  end
  begin
     id 28
     name rhand
     direction -1 -4.48904e-011 -1.91266e-027   
     length 0.884996   
     axis 1.22306e-015 -90 -90   XYZ
    dof rx rz
    limits (-90.0 90.0)
           (-45.0 45.0)
  end
  begin
     id 29
     name rfingers
     direction -1 -4.4909e-011 -3.85015e-027   
     length 0.713507   
     axis 2.44611e-015 -90 -90   XYZ
    dof rx
    limits (0.0 90.0)
  end
  begin
     id 30
     name rthumb
     direction -0.707107 -6.34853e-011 0.707107   
     length 1.02446   
     axis -90 -45 1.62303e-014   XYZ
    dof rx rz
    limits (-45.0 45.0)
           (-45.0 45.0)
  end
:hierarchy
  begin
    root lhipjoint rhipjoint lowerback
    lhipjoint lfemur
    lfemur ltibia
    ltibia lfoot
    lfoot ltoes
    rhipjoint rfemur
    rfemur rtibia
    rtibia rfoot
    rfoot rtoes
    lowerback upperback
    upperback thorax
    thorax lowerneck lclavicle rclavicle
    lowerneck upperneck
    upperneck head
    lclavicle lhumerus
    lhumerus lradius
    lradius lwrist
    lwrist lhand lthumb
    lhand lfingers
    rclavicle rhumerus
    rhumerus rradius
    rradius rwrist
    rwrist rhand rthumb
    rhand rfingers
  end

#!OML:ASF F:\twosubjects\two\Thursday\Session 1\justin.ASF
:FULLY-SPECIFIED
:DEGREES
199
root 13.3772 7.50098 -16.4206 2.39721 -76.3431 -2.76077
lowerback 34.2047 2.36955 1.04852
upperback 7.82031 3.12695 5.13529
thorax -9.02264 1.07774 3.75961
lowerneck -20.1918 6.32286 -5.0128
upperneck 13.1754 9.83904 0.657684
head 7.03847 4.51915 2.13656
rclavicle -3.97569e-014 1.59028e-015
rhumerus -24.6205 -33.8096 -45.1861
rradius 41.9403
rwrist -7.60024
rhand -17.3534 16.416
rfingers 7.12502
rthumb 8.89431 -13.3765
lclavicle -3.97569e-014 1.59028e-015
lhumerus -29.5483 29.502 49.2616
lradius 44.4894
lwrist -9.24077
lhand -3.9848 37.8802
lfingers 7.12502
lthumb 21.7686 66.676
rfemur -107.904 -77.2567 35.381
rtibia 156.551
rfoot -39.5706 31.0169
rtoes -23.9968
lfemur -226.511 84.9007 -146.091
ltibia 153.233
lfoot -54.538 -39.3861
ltoes -21.2156
200
root 13.3675 7.39806 -16.4068 2.08713 -76.489 -2.79489
lowerback 34.2809 2.40051 1.06921
upperback 7.97408 3.151 5.16926
thorax -8.88403 1.07922 3.77605
lowerneck -19.8187 6.24176 -5.14861
upperneck 12.6727 9.71257 0.748112
head 6.8048 4.48132 2.14171
rclavicle 5.24792e-014 -2.38542e-014
rhumerus -24.5623 -33.4496 -45.2391
rradius 41.8275
rwrist -7.77471
rhand -17.7279 15.8281
rfingers 7.12502
rthumb 8.53291 -13.9795
lclavicle 5.24792e-014 -2.38542e-014
lhumerus -29.3077 29.7502 49.2342
lradius 44.1522
lwrist -9.32626
lhand -4.27545 37.7642
lfingers 7.12502
lthumb 21.4894 66.5922
rfemur -110.295 -78.6376 35.8929
rtibia 157.414
rfoot -38.3284 33.4372
rtoes -20.7976
lfemur -242.752 83.2271 -161.13
ltibia 154.068
lfoot -55.0949 -40.9225
ltoes -18.9731
201
root 13.3588 7.30869 -16.3951 1.2993 -76.6913 -2.37415
lowerback 34.3847 2.4303 1.02874
upperback 8.12009 3.14179 5.07538
thorax -8.75548 1.06766 3.7011
lowerneck -19.5804 6.18537 -4.85986
upperneck 12.3112 9.55156 0.639767
head 6.67262 4.42107 2.0269
rclavicle -3.18055e-014 0
rhumerus -24.5771 -33.3144 -45.4043
rradius 41.6725
rwrist -7.81181
rhand -18.002 15.7924
rfingers 7.12502
rthumb 8.26843 -14.0258
lclavicle -3.18055e-014 0
lhumerus -29.0945 29.9611 49.0707
lradius 43.8939
lwrist -9.35986
lhand -4.58489 37.7532
lfingers 7.12502
lthumb 21.1922 66.6148
rfemur -111.803 -79.8053 35.3189
rtibia 158.164
rfoot -37.0553 36.171
rtoes -17.8214
lfemur -248.771 82.4622 -165.535
ltibia 154.92
lfoot -53.5685 -44.393
ltoes -15.1072
202
root 13.3503 7.2255 -16.3902 0.0724375 -76.8886 -1.49335
lowerback 34.5019 2.48015 0.79372
upperback 8.27245 3.09339 5.00407
thorax -8.63624 1.03937 3.76863
lowerneck -19.7684 6.1808 -4.4571
upperneck 12.367 9.50162 0.326241
head 6.75935 4.38204 1.87055
rclavicle -3.97569e-014 2.38542e-014
rhumerus -24.459 -33.3357 -45.5268
rradius 41.4164
rwrist -7.7739
rhand -18.1625 16.1813
rfingers 7.12502
rthumb 8.11346 -13.6429
lclavicle -3.97569e-014 2.38542e-014
lhumerus -28.8939 30.4097 48.8954
lradius 43.5026
lwrist -9.70738
lhand -3.99682 37.9161
lfingers 7.12502
lthumb 21.757 66.7133
rfemur -113.497 -81.2511 35.6791
rtibia 158.773
rfoot -37.0315 37.4715
rtoes -16.9807
lfemur -252.129 82.3677 -167.237
ltibia 155.703
lfoot -53.0796 -46.0704
ltoes -15.6487
203
root 13.3462 7.13639 -16.3854 0.0219659 -76.7758 -1.90899
lowerback 34.8647 2.40689 1.01228
upperback 8.32486 3.06595 4.99935
thorax -8.69704 1.01478 3.65389
lowerneck -20.0001 6.14508 -4.20677
upperneck 12.6581 9.39948 0.367323
head 6.90447 4.33761 1.85249
rclavicle -1.43125e-014 -3.97569e-014
rhumerus -24.6364 -33.547 -45.4012
rradius 41.1182
rwrist -7.64971
rhand -18.4988 16.2902
rfingers 7.12502
rthumb 7.78889 -13.5464
lclavicle -1.43125e-014 -3.97569e-014
lhumerus -28.6046 30.6159 48.8548
lradius 43.1979
lwrist -10.0303
lhand -2.95362 38.231
lfingers 7.12502
lthumb 22.7585 66.9086
rfemur -118.065 -82.9189 40.3719
rtibia 159.281
rfoot -38.5486 36.078
rtoes -20.3141
lfemur -257.261 81.2512 -171.252
ltibia 156.386
lfoot -55.0678 -44.7045
ltoes -19.1618
204
root 13.3392 7.05595 -16.3858 0.671248 -76.7913 -3.02323
lowerback 35.3319 2.50355 1.41797
upperback 8.30605 3.31963 4.88048
thorax -8.86751 1.12197 3.20875
lowerneck -19.7356 5.9932 -3.75444
upperneck 12.4398 9.00678 0.632318
head 6.8059 4.20527 1.81048
rclavicle 2.70347e-014 1.43125e-014
rhumerus -25.5257 -33.8969 -45.1332
rradius 41.0692
rwrist -7.63611
rhand -17.8855 16.2217
rfingers 7.12502
rthumb 8.38084 -13.592
lclavicle 2.70347e-014 1.43125e-014
lhumerus -27.9499 30.1074 48.9334
lradius 43.121
lwrist -9.94314
lhand -2.59877 38.5482
lfingers 7.12502
lthumb 23.099 67.1836
rfemur -123.605 -84.0176 46.228
rtibia 159.783
rfoot -39.4761 34.7498
rtoes -22.8366
lfemur -262.77 79.5018 -175.434
ltibia 156.949
lfoot -56.0295 -45.0807
ltoes -18.5679
205
root 13.3344 6.99548 -16.3802 -0.5498 -76.7708 -2.25398
lowerback 35.8083 2.28337 1.01905
upperback 8.36796 2.89925 4.9742
thorax -8.97998 0.916354 3.67901
lowerneck -19.2621 6.24674 -4.62053
upperneck 11.8784 9.47314 1.04563
head 6.47044 4.44946 2.0854
rclavicle -2.78299e-014 0
rhumerus -24.6721 -33.0826 -45.7804
rradius 40.8009
rwrist -7.55667
rhand -17.4336 15.9987
rfingers 7.12502
rthumb 8.8169 -13.7971
lclavicle -2.78299e-014 0
lhumerus -28.9593 31.0191 48.36
lradius 43.3363
lwrist -9.82318
lhand -2.94479 38.5583
lfingers 7.12502
lthumb 22.767 67.2349
rfemur -132.194 -85.5585 53.4184
rtibia 160.229
rfoot -39.2863 36.1703
rtoes -21.6413
lfemur -266.185 78.7532 -178.101
ltibia 157.409
lfoot -55.2261 -47.2467
ltoes -13.9021
206
root 13.3333 6.92363 -16.3901 -2.43044 -76.978 -0.15833
lowerback 35.4449 2.49113 0.327716
upperback 8.42585 2.90838 4.92893
thorax -8.82141 0.934499 3.99816
lowerneck -19.7195 6.28879 -4.75019
upperneck 12.3092 9.57102 1.21685
head 6.66616 4.49104 2.20027
rclavicle -3.97569e-014 1.27222e-014
rhumerus -24.5465 -33.2677 -45.8935
rradius 40.4653
rwrist -7.20543
rhand -18.0673 15.5829
rfingers 7.12502
rthumb 8.20537 -14.2378
lclavicle -3.97569e-014 1.27222e-014
lhumerus -28.9757 31.3799 48.4245
lradius 43.3503
lwrist -9.63323
lhand -3.49515 38.4328
lfingers 7.12502
lthumb 22.2387 67.1734
rfemur -139.51 -85.3769 59.0128
rtibia 160.818
rfoot -38.2245 37.5593
rtoes -19.3126
lfemur -265.636 78.5771 -176.86
ltibia 157.797
lfoot -54.3153 -49.1876
ltoes -11.0713
207
root 13.3369 6.88385 -16.395 -2.67519 -76.8532 -0.280862
lowerback 35.9107 2.51419 0.275345
upperback 8.39925 2.93307 5.07039
thorax -9.03487 0.938148 4.16283
lowerneck -20.1214 6.24047 -4.18388
upperneck 12.8298 9.47393 0.705418
head 6.96048 4.40203 1.97442
rclavicle -7.95139e-015 3.18055e-015
rhumerus -24.6406 -33.5976 -45.6774
rradius 40.0707
rwrist -6.79077
rhand -18.1976 15.5474
rfingers 7.12502
rthumb 8.07964 -14.2782
lclavicle -7.95139e-015 3.18055e-015
lhumerus -28.9368 31.422 48.5995
lradius 43.2454
lwrist -9.3983
lhand -3.56012 38.6099
lfingers 7.12502
lthumb 22.1763 67.3578
rfemur -139.702 -86.0519 58.8959
rtibia 160.999
rfoot -38.114 38.2066
rtoes -17.9996
lfemur -267.66 78.3457 -178.318
ltibia 158.02
lfoot -55.593 -48.5969
ltoes -13.8599
